<?xml version="1.0" standalone="no"?>
<!DOCTYPE svg PUBLIC "-//W3C//DTD SVG 20010904//EN"
 "http://www.w3.org/TR/2001/REC-SVG-20010904/DTD/svg10.dtd">
<svg version="1.0" xmlns="http://www.w3.org/2000/svg"
 width="157.000000pt" height="157.000000pt" viewBox="0 0 157.000000 157.000000"
 preserveAspectRatio="xMidYMid meet">
<metadata>
Created by potrace 1.16, written by Peter Selinger 2001-2019
</metadata>
<g transform="translate(0.000000,157.000000) scale(0.100000,-0.100000)"
fill="#000000" stroke="none">
<path d="M822 1358 c3 -21 -2 -23 -55 -30 -118 -15 -177 -62 -147 -117 14 -28
34 -27 127 9 42 17 85 30 94 30 13 0 22 -21 39 -81 51 -191 71 -320 77 -500 5
-160 4 -183 -15 -245 -21 -69 -57 -116 -109 -143 -32 -16 -130 -13 -169 5
-113 54 -165 224 -114 375 12 34 19 63 17 65 -9 9 -80 -80 -99 -123 -26 -60
-34 -142 -18 -198 17 -61 77 -127 142 -156 69 -30 204 -33 258 -5 63 33 102
68 140 126 57 90 75 162 74 310 -2 176 -40 338 -121 513 -20 42 -34 79 -32 81
7 7 156 36 183 36 14 0 27 4 30 9 9 15 -34 21 -151 21 -102 0 -114 2 -125 20
-17 27 -30 25 -26 -2z"/>
</g>
</svg>
